<?xml version="1.0" standalone="no"?>
<!DOCTYPE svg PUBLIC "-//W3C//DTD SVG 20010904//EN"
 "http://www.w3.org/TR/2001/REC-SVG-20010904/DTD/svg10.dtd">
<svg version="1.0" xmlns="http://www.w3.org/2000/svg"
 width="555.000000pt" height="409.000000pt" viewBox="0 0 555.000000 409.000000"
 preserveAspectRatio="xMidYMid meet">

<g transform="translate(0.000000,409.000000) scale(0.100000,-0.100000)"
fill="#000000" stroke="none">
<path d="M4747 3985 c-49 -13 -90 -25 -93 -28 -8 -7 -84 -384 -109 -542 -14
-82 -31 -216 -40 -297 -17 -171 -21 -558 -4 -558 5 0 16 -15 24 -34 17 -40 96
-79 165 -80 l45 -1 5 250 c4 186 9 256 19 275 59 107 231 288 231 244 0 -4
-12 -79 -26 -168 -17 -101 -27 -204 -28 -276 -1 -107 1 -119 28 -178 16 -35
42 -74 58 -87 95 -80 234 24 358 266 49 95 61 141 40 154 -6 4 -10 15 -8 25 2
10 -8 30 -21 44 l-25 26 -33 -60 c-39 -69 -97 -130 -125 -130 -26 0 -24 48 12
235 39 204 39 258 0 335 -36 71 -69 95 -125 94 -63 -1 -140 -49 -232 -142 -46
-46 -83 -77 -83 -70 0 32 52 310 92 492 31 143 31 149 14 162 -14 10 -17 21
-13 44 8 37 -2 38 -126 5z"/>
<path d="M1145 3679 c-364 -50 -660 -239 -791 -505 -85 -174 -95 -318 -29
-451 39 -79 68 -108 125 -123 48 -13 68 -5 154 57 71 51 89 82 63 111 -9 10
-13 27 -10 43 4 23 2 26 -28 27 -41 1 -80 30 -91 68 -5 16 -7 55 -4 86 19 196
239 426 466 485 93 24 258 23 334 -2 77 -25 139 -82 156 -145 15 -54 8 -174
-14 -246 -29 -94 -93 -174 -184 -230 -10 -6 12 -44 28 -49 10 -3 17 -11 15
-18 -7 -17 6 -32 42 -51 86 -43 117 -142 117 -371 1 -186 -17 -278 -68 -352
-59 -87 -109 -93 -180 -22 -56 57 -81 52 -113 -25 -26 -63 -26 -62 15 -131 87
-146 456 -31 663 206 105 119 212 301 307 521 l21 47 75 -30 75 -31 -28 -57
c-53 -105 -83 -202 -84 -271 -1 -57 4 -74 38 -138 21 -41 49 -81 62 -89 37
-24 94 -19 153 13 47 26 78 55 206 202 l29 33 35 -48 c22 -30 55 -58 90 -76
48 -25 63 -28 114 -24 115 10 262 112 361 251 22 30 42 56 45 55 3 0 24 -40
47 -88 65 -136 121 -160 234 -100 61 33 106 80 153 162 28 48 29 84 1 73 -18
-7 -18 2 0 34 28 49 13 52 -75 15 -96 -40 -100 -38 -100 48 0 41 16 169 35
286 39 236 41 266 21 274 -11 4 -13 16 -9 42 l6 36 -69 -27 c-38 -14 -88 -33
-112 -41 -25 -9 -47 -24 -53 -37 -5 -11 -25 -99 -43 -194 -25 -125 -43 -187
-62 -220 -59 -103 -149 -225 -196 -267 -41 -37 -57 -45 -89 -45 -79 0 -145 49
-137 102 2 17 22 33 78 63 131 71 223 147 260 214 23 44 41 123 35 153 -13 57
-53 135 -84 161 -92 77 -274 34 -395 -92 -98 -103 -143 -229 -153 -423 l-6
-118 -46 -56 c-58 -72 -91 -97 -115 -88 -28 11 -16 78 49 269 58 172 65 212
40 221 -9 4 -15 19 -15 39 l0 33 -112 0 c-62 0 -125 5 -140 11 -27 10 -28 13
-25 78 1 55 -3 78 -23 121 -27 58 -47 69 -105 58 -109 -21 -175 -191 -117
-303 12 -23 22 -51 22 -62 0 -26 -78 -228 -123 -316 l-35 -69 -7 54 c-21 159
-131 335 -240 387 -19 9 -35 19 -35 22 0 3 22 21 50 40 65 45 152 136 179 189
36 71 54 159 47 232 -7 77 -65 207 -120 268 -44 48 -148 104 -236 127 -78 20
-250 27 -345 14z m1887 -794 c-7 -74 -85 -197 -155 -247 l-30 -22 6 50 c20
140 90 258 151 252 28 -3 31 -6 28 -33z"/>
<path d="M3650 3582 c-34 -23 -74 -26 -163 -10 -16 2 -22 -9 -37 -67 -10 -38
-23 -83 -30 -100 -10 -25 -8 -31 9 -45 10 -8 21 -24 23 -35 2 -11 14 -25 28
-33 35 -18 124 -10 158 14 59 43 106 190 68 211 -8 4 -16 26 -18 48 l-3 41
-35 -24z"/>
<path d="M1140 3404 c-97 -49 -197 -144 -243 -232 -79 -151 -94 -248 -107
-669 -5 -170 -14 -339 -20 -378 -36 -250 -103 -375 -201 -375 -48 0 -106 25
-120 52 -6 11 -17 56 -24 101 -22 131 -26 143 -46 155 -17 11 -26 7 -69 -27
-50 -40 -143 -81 -181 -81 -19 0 -20 -4 -14 -42 16 -94 78 -195 151 -247 143
-101 377 -101 536 0 206 132 323 467 348 1003 12 264 18 325 40 421 22 95 42
145 81 202 32 45 35 63 17 81 -8 8 -8 15 1 26 11 13 7 18 -24 31 -21 8 -41 15
-45 15 -4 0 -40 -16 -80 -36z"/>
<path d="M4345 3345 c-73 -28 -266 -72 -358 -81 -54 -5 -75 -3 -107 11 -21 10
-45 15 -53 12 -18 -7 -47 -111 -47 -168 0 -63 47 -136 93 -144 32 -6 223 11
240 22 19 12 0 -26 -80 -153 -91 -145 -229 -408 -256 -488 l-16 -46 25 0 c19
0 24 -5 24 -25 0 -38 39 -33 81 11 90 96 191 83 397 -50 65 -41 147 -90 182
-108 61 -31 72 -33 165 -33 91 0 105 3 155 29 97 50 240 176 240 211 0 12 -3
25 -7 29 -4 4 -8 13 -8 19 -2 27 -18 67 -27 67 -5 0 -28 -13 -51 -29 -101 -68
-147 -86 -232 -86 -94 0 -123 13 -255 110 -158 116 -220 148 -324 163 l-44 7
130 210 c197 319 261 455 212 455 -11 0 -14 6 -8 23 19 59 10 63 -71 32z"/>
<path d="M3335 2071 c-8 -14 -52 -271 -76 -441 -22 -165 -22 -165 -64 -220
-23 -30 -63 -74 -89 -98 l-47 -43 -22 32 c-49 72 -119 97 -220 78 -154 -27
-283 -129 -355 -279 -49 -104 -62 -163 -62 -290 l0 -98 -38 -49 c-59 -74 -146
-148 -210 -180 -49 -24 -69 -28 -142 -28 -107 0 -172 27 -233 95 -76 85 -102
212 -94 469 7 240 46 403 133 559 51 91 148 188 198 198 52 9 109 -10 140 -47
23 -27 26 -39 26 -108 0 -213 -139 -390 -277 -352 -28 8 -39 7 -45 -2 -30 -47
25 -180 87 -210 81 -39 235 -13 330 55 126 90 202 288 177 458 -13 90 -75 222
-127 275 -83 82 -223 114 -355 81 -36 -9 -105 -36 -155 -60 -203 -100 -354
-279 -440 -520 -57 -159 -70 -239 -69 -431 1 -200 17 -272 89 -420 105 -215
262 -315 490 -315 195 0 325 59 483 218 l102 103 49 -53 c58 -64 104 -83 184
-76 124 10 246 103 319 244 60 116 79 191 85 351 l6 142 46 30 46 30 12 -155
c13 -167 28 -236 73 -324 57 -112 119 -160 208 -160 64 0 155 45 231 116 l57
53 45 -30 c98 -65 230 -17 330 120 24 33 47 61 51 61 4 0 10 -10 13 -21 4 -12
25 -41 47 -65 49 -53 108 -70 190 -55 108 20 244 98 282 161 15 27 15 32 1 53
-8 13 -12 26 -9 30 4 3 -8 23 -26 43 -18 21 -39 52 -46 71 -8 18 -20 33 -28
33 -7 0 -23 -28 -36 -62 -38 -106 -89 -160 -131 -137 -22 11 -22 15 -16 178 4
91 16 220 26 286 49 298 47 276 28 290 -13 9 -15 20 -10 45 6 32 5 33 -23 26
-49 -12 -137 -55 -175 -86 -36 -28 -37 -29 -54 -10 -9 10 -39 24 -66 30 -98
24 -201 -22 -312 -139 -155 -163 -224 -386 -182 -592 l17 -84 -38 -33 c-33
-28 -45 -33 -84 -30 -67 4 -80 38 -87 216 -8 206 18 430 103 905 15 83 15 89
-1 101 -14 10 -17 21 -12 46 6 30 5 32 -16 26 -46 -14 -153 -18 -189 -8 -21 6
-40 7 -43 3z m851 -585 c17 -13 19 -26 18 -133 -2 -198 -56 -370 -133 -420
-41 -28 -52 -28 -82 -4 -23 18 -24 26 -23 123 1 119 29 247 75 345 44 92 96
124 145 89z m-1391 -330 c23 -48 54 -74 100 -84 l40 -8 -3 -80 c-5 -141 -52
-272 -120 -337 -25 -24 -36 -28 -60 -22 -50 10 -62 34 -75 140 -17 153 15 347
69 406 24 26 31 24 49 -15z"/>
</g>
</svg>
